<mxfile host="Electron" agent="Mozilla/5.0 (Windows NT 10.0; Win64; x64) AppleWebKit/537.36 (KHTML, like Gecko) draw.io/24.7.8 Chrome/128.0.6613.36 Electron/32.0.1 Safari/537.36" version="24.7.8">
  <diagram name="Seite-1" id="DELIHTg8DZZPY-OrP1yV">
    <mxGraphModel dx="1218" dy="1855" grid="1" gridSize="10" guides="1" tooltips="1" connect="1" arrows="1" fold="1" page="1" pageScale="1" pageWidth="827" pageHeight="1169" math="0" shadow="0">
      <root>
        <mxCell id="0" />
        <mxCell id="1" parent="0" />
        <mxCell id="m4VKEO36BWbL3_0D6fkD-33" value="Turn" style="shape=umlFrame;whiteSpace=wrap;html=1;pointerEvents=0;recursiveResize=0;container=1;collapsible=0;width=160;" parent="1" vertex="1">
          <mxGeometry x="200" y="-1040" width="1450" height="200" as="geometry" />
        </mxCell>
        <mxCell id="NEaa0bvvRaZk59ujzvWm-10" style="edgeStyle=orthogonalEdgeStyle;rounded=0;orthogonalLoop=1;jettySize=auto;html=1;exitX=1;exitY=0.5;exitDx=0;exitDy=0;entryX=0;entryY=0.5;entryDx=0;entryDy=0;" parent="m4VKEO36BWbL3_0D6fkD-33" source="m4VKEO36BWbL3_0D6fkD-4" target="NEaa0bvvRaZk59ujzvWm-9" edge="1">
          <mxGeometry relative="1" as="geometry" />
        </mxCell>
        <mxCell id="m4VKEO36BWbL3_0D6fkD-4" value="PowerCard" style="rounded=1;whiteSpace=wrap;html=1;" parent="m4VKEO36BWbL3_0D6fkD-33" vertex="1">
          <mxGeometry x="120" y="70" width="120" height="60" as="geometry" />
        </mxCell>
        <mxCell id="NEaa0bvvRaZk59ujzvWm-22" style="edgeStyle=orthogonalEdgeStyle;rounded=0;orthogonalLoop=1;jettySize=auto;html=1;exitX=1;exitY=0.5;exitDx=0;exitDy=0;entryX=0;entryY=0.5;entryDx=0;entryDy=0;" parent="m4VKEO36BWbL3_0D6fkD-33" source="m4VKEO36BWbL3_0D6fkD-6" target="m4VKEO36BWbL3_0D6fkD-7" edge="1">
          <mxGeometry relative="1" as="geometry" />
        </mxCell>
        <mxCell id="G7ypiiU1X5uQYoPytCUf-1" style="edgeStyle=orthogonalEdgeStyle;rounded=0;orthogonalLoop=1;jettySize=auto;html=1;exitX=0.5;exitY=0;exitDx=0;exitDy=0;entryX=0.5;entryY=0;entryDx=0;entryDy=0;" parent="m4VKEO36BWbL3_0D6fkD-33" source="m4VKEO36BWbL3_0D6fkD-6" target="m4VKEO36BWbL3_0D6fkD-9" edge="1">
          <mxGeometry relative="1" as="geometry">
            <Array as="points">
              <mxPoint x="900" y="40" />
              <mxPoint x="1421" y="40" />
            </Array>
          </mxGeometry>
        </mxCell>
        <mxCell id="m4VKEO36BWbL3_0D6fkD-6" value="ChoosePiece" style="rounded=1;whiteSpace=wrap;html=1;" parent="m4VKEO36BWbL3_0D6fkD-33" vertex="1">
          <mxGeometry x="840" y="70" width="120" height="60" as="geometry" />
        </mxCell>
        <mxCell id="m4VKEO36BWbL3_0D6fkD-14" style="edgeStyle=orthogonalEdgeStyle;rounded=0;orthogonalLoop=1;jettySize=auto;html=1;exitX=1;exitY=0.5;exitDx=0;exitDy=0;entryX=0;entryY=0.5;entryDx=0;entryDy=0;" parent="m4VKEO36BWbL3_0D6fkD-33" source="m4VKEO36BWbL3_0D6fkD-7" target="m4VKEO36BWbL3_0D6fkD-8" edge="1">
          <mxGeometry relative="1" as="geometry" />
        </mxCell>
        <mxCell id="m4VKEO36BWbL3_0D6fkD-7" value="MovePiece" style="rounded=1;whiteSpace=wrap;html=1;" parent="m4VKEO36BWbL3_0D6fkD-33" vertex="1">
          <mxGeometry x="1041" y="70" width="120" height="60" as="geometry" />
        </mxCell>
        <mxCell id="m4VKEO36BWbL3_0D6fkD-16" style="edgeStyle=orthogonalEdgeStyle;rounded=0;orthogonalLoop=1;jettySize=auto;html=1;exitX=1;exitY=0.5;exitDx=0;exitDy=0;entryX=0;entryY=0.5;entryDx=0;entryDy=0;" parent="m4VKEO36BWbL3_0D6fkD-33" source="m4VKEO36BWbL3_0D6fkD-8" target="m4VKEO36BWbL3_0D6fkD-9" edge="1">
          <mxGeometry relative="1" as="geometry">
            <mxPoint x="1101" y="93.7702702702702" as="targetPoint" />
          </mxGeometry>
        </mxCell>
        <mxCell id="xHcXMsHDXUdA91ZPtNUW-9" style="edgeStyle=orthogonalEdgeStyle;rounded=0;orthogonalLoop=1;jettySize=auto;html=1;exitX=0.5;exitY=1;exitDx=0;exitDy=0;entryX=0.5;entryY=1;entryDx=0;entryDy=0;" edge="1" parent="m4VKEO36BWbL3_0D6fkD-33" source="m4VKEO36BWbL3_0D6fkD-8" target="xHcXMsHDXUdA91ZPtNUW-3">
          <mxGeometry relative="1" as="geometry" />
        </mxCell>
        <mxCell id="m4VKEO36BWbL3_0D6fkD-8" value="" style="rhombus;whiteSpace=wrap;html=1;" parent="m4VKEO36BWbL3_0D6fkD-33" vertex="1">
          <mxGeometry x="1291" y="85" width="60" height="30" as="geometry" />
        </mxCell>
        <mxCell id="m4VKEO36BWbL3_0D6fkD-18" value="[roll==6]/sendDiceAgain(msg)" style="text;html=1;align=center;verticalAlign=middle;resizable=0;points=[];autosize=1;strokeColor=none;fillColor=none;" parent="m4VKEO36BWbL3_0D6fkD-33" vertex="1">
          <mxGeometry x="1065" y="150" width="180" height="30" as="geometry" />
        </mxCell>
        <mxCell id="m4VKEO36BWbL3_0D6fkD-19" value="[else]" style="text;html=1;align=center;verticalAlign=middle;resizable=1;points=[];autosize=1;strokeColor=none;fillColor=none;movable=1;rotatable=1;deletable=1;editable=1;locked=0;connectable=1;" parent="m4VKEO36BWbL3_0D6fkD-33" vertex="1">
          <mxGeometry x="1341" y="61.5" width="50" height="30" as="geometry" />
        </mxCell>
        <mxCell id="m4VKEO36BWbL3_0D6fkD-24" value="receivedEndMove()" style="text;html=1;align=center;verticalAlign=middle;resizable=0;points=[];autosize=1;strokeColor=none;fillColor=none;" parent="m4VKEO36BWbL3_0D6fkD-33" vertex="1">
          <mxGeometry x="1161" y="70" width="130" height="30" as="geometry" />
        </mxCell>
        <mxCell id="m4VKEO36BWbL3_0D6fkD-9" value="" style="group;movable=1;resizable=1;rotatable=1;deletable=1;editable=1;locked=0;connectable=1;" parent="m4VKEO36BWbL3_0D6fkD-33" vertex="1" connectable="0">
          <mxGeometry x="1401" y="80" width="40" height="40" as="geometry" />
        </mxCell>
        <mxCell id="m4VKEO36BWbL3_0D6fkD-10" value="" style="ellipse;whiteSpace=wrap;html=1;aspect=fixed;movable=0;resizable=0;rotatable=0;deletable=0;editable=0;locked=1;connectable=0;" parent="m4VKEO36BWbL3_0D6fkD-9" vertex="1">
          <mxGeometry width="40" height="40" as="geometry" />
        </mxCell>
        <mxCell id="m4VKEO36BWbL3_0D6fkD-11" value="" style="ellipse;whiteSpace=wrap;html=1;aspect=fixed;fillColor=#000000;movable=0;resizable=0;rotatable=0;deletable=0;editable=0;locked=1;connectable=0;" parent="m4VKEO36BWbL3_0D6fkD-9" vertex="1">
          <mxGeometry x="6.409999999999968" y="6.4099999999998545" width="27.18" height="27.18" as="geometry" />
        </mxCell>
        <mxCell id="xHcXMsHDXUdA91ZPtNUW-2" style="edgeStyle=orthogonalEdgeStyle;rounded=0;orthogonalLoop=1;jettySize=auto;html=1;exitX=0.5;exitY=0;exitDx=0;exitDy=0;entryX=0.75;entryY=0;entryDx=0;entryDy=0;" edge="1" parent="m4VKEO36BWbL3_0D6fkD-33" source="NEaa0bvvRaZk59ujzvWm-9" target="m4VKEO36BWbL3_0D6fkD-4">
          <mxGeometry relative="1" as="geometry">
            <Array as="points">
              <mxPoint x="370" y="60" />
              <mxPoint x="210" y="60" />
            </Array>
          </mxGeometry>
        </mxCell>
        <mxCell id="NEaa0bvvRaZk59ujzvWm-9" value="" style="rhombus;whiteSpace=wrap;html=1;" parent="m4VKEO36BWbL3_0D6fkD-33" vertex="1">
          <mxGeometry x="340" y="85" width="60" height="30" as="geometry" />
        </mxCell>
        <mxCell id="NEaa0bvvRaZk59ujzvWm-11" value="receivePowercard()" style="text;html=1;align=center;verticalAlign=middle;resizable=0;points=[];autosize=1;strokeColor=none;fillColor=none;" parent="m4VKEO36BWbL3_0D6fkD-33" vertex="1">
          <mxGeometry x="240" y="70" width="130" height="30" as="geometry" />
        </mxCell>
        <mxCell id="NEaa0bvvRaZk59ujzvWm-14" value="[canPlayPowercard()]/sendPowercardResponce()" style="text;html=1;align=center;verticalAlign=middle;resizable=0;points=[];autosize=1;strokeColor=none;fillColor=none;" parent="m4VKEO36BWbL3_0D6fkD-33" vertex="1">
          <mxGeometry x="380" y="70" width="290" height="30" as="geometry" />
        </mxCell>
        <mxCell id="NEaa0bvvRaZk59ujzvWm-15" value="[else]" style="text;html=1;align=center;verticalAlign=middle;resizable=0;points=[];autosize=1;strokeColor=none;fillColor=none;" parent="m4VKEO36BWbL3_0D6fkD-33" vertex="1">
          <mxGeometry x="320" y="31.5" width="50" height="30" as="geometry" />
        </mxCell>
        <mxCell id="xHcXMsHDXUdA91ZPtNUW-1" style="edgeStyle=orthogonalEdgeStyle;rounded=0;orthogonalLoop=1;jettySize=auto;html=1;exitX=1;exitY=0.5;exitDx=0;exitDy=0;entryX=0;entryY=0.5;entryDx=0;entryDy=0;" edge="1" parent="m4VKEO36BWbL3_0D6fkD-33" source="m4VKEO36BWbL3_0D6fkD-12" target="m4VKEO36BWbL3_0D6fkD-4">
          <mxGeometry relative="1" as="geometry" />
        </mxCell>
        <mxCell id="m4VKEO36BWbL3_0D6fkD-12" value="" style="ellipse;whiteSpace=wrap;html=1;aspect=fixed;fillColor=#000000;" parent="m4VKEO36BWbL3_0D6fkD-33" vertex="1">
          <mxGeometry x="40" y="80" width="40" height="40" as="geometry" />
        </mxCell>
        <mxCell id="xHcXMsHDXUdA91ZPtNUW-4" style="edgeStyle=orthogonalEdgeStyle;rounded=0;orthogonalLoop=1;jettySize=auto;html=1;exitX=1;exitY=0.5;exitDx=0;exitDy=0;entryX=0;entryY=0.5;entryDx=0;entryDy=0;" edge="1" parent="m4VKEO36BWbL3_0D6fkD-33" source="xHcXMsHDXUdA91ZPtNUW-3" target="m4VKEO36BWbL3_0D6fkD-6">
          <mxGeometry relative="1" as="geometry" />
        </mxCell>
        <mxCell id="xHcXMsHDXUdA91ZPtNUW-6" style="edgeStyle=orthogonalEdgeStyle;rounded=0;orthogonalLoop=1;jettySize=auto;html=1;exitX=0.5;exitY=0;exitDx=0;exitDy=0;entryX=0.5;entryY=0;entryDx=0;entryDy=0;" edge="1" parent="m4VKEO36BWbL3_0D6fkD-33" source="xHcXMsHDXUdA91ZPtNUW-3" target="m4VKEO36BWbL3_0D6fkD-9">
          <mxGeometry relative="1" as="geometry">
            <Array as="points">
              <mxPoint x="740" y="20" />
              <mxPoint x="1421" y="20" />
            </Array>
          </mxGeometry>
        </mxCell>
        <mxCell id="xHcXMsHDXUdA91ZPtNUW-3" value="RollDice" style="rounded=1;whiteSpace=wrap;html=1;" vertex="1" parent="m4VKEO36BWbL3_0D6fkD-33">
          <mxGeometry x="680" y="70" width="120" height="60" as="geometry" />
        </mxCell>
        <mxCell id="xHcXMsHDXUdA91ZPtNUW-5" style="edgeStyle=orthogonalEdgeStyle;rounded=0;orthogonalLoop=1;jettySize=auto;html=1;entryX=0;entryY=0.5;entryDx=0;entryDy=0;" edge="1" parent="m4VKEO36BWbL3_0D6fkD-33" source="NEaa0bvvRaZk59ujzvWm-9" target="xHcXMsHDXUdA91ZPtNUW-3">
          <mxGeometry relative="1" as="geometry" />
        </mxCell>
        <mxCell id="xHcXMsHDXUdA91ZPtNUW-8" value="[noTurn]" style="text;html=1;align=center;verticalAlign=middle;resizable=0;points=[];autosize=1;strokeColor=none;fillColor=none;" vertex="1" parent="m4VKEO36BWbL3_0D6fkD-33">
          <mxGeometry x="900" y="40" width="70" height="30" as="geometry" />
        </mxCell>
        <mxCell id="xHcXMsHDXUdA91ZPtNUW-7" value="[noTurn]" style="text;html=1;align=center;verticalAlign=middle;resizable=0;points=[];autosize=1;strokeColor=none;fillColor=none;" vertex="1" parent="1">
          <mxGeometry x="945" y="-1012" width="70" height="30" as="geometry" />
        </mxCell>
      </root>
    </mxGraphModel>
  </diagram>
</mxfile>
